<svg width="27" height="29" viewBox="0 0 27 29" fill="none" xmlns="http://www.w3.org/2000/svg">
<g filter="url(#filter0_d_129_150)">
<path d="M22.1805 20.1228L20.9027 5.89192C20.8678 5.50329 20.5421 5.2056 20.1519 5.2056H17.5167V4.01709C17.5167 1.80207 15.7147 0 13.4998 0C11.285 0 9.48323 1.80207 9.48323 4.01709V5.2056H6.8462C6.45606 5.2056 6.13034 5.50329 6.09547 5.89192L4.81258 20.1788C4.79369 20.3897 4.86424 20.5986 5.00705 20.7548C5.14986 20.911 5.35177 20.9999 5.56332 20.9999H21.4349C21.4355 20.9999 21.4363 20.9999 21.4369 20.9999C21.8533 20.9999 22.1907 20.6624 22.1907 20.2461C22.1906 20.2042 22.1871 20.1629 22.1805 20.1228ZM10.9907 4.01709C10.9907 2.6333 12.1163 1.5075 13.4999 1.5075C14.8836 1.5075 16.0093 2.6333 16.0093 4.01709V5.2056H10.9907V4.01709ZM6.38782 19.4925L7.53533 6.71311H9.48323V8.06101C9.48323 8.47728 9.8206 8.81476 10.237 8.81476C10.6533 8.81476 10.9907 8.47728 10.9907 8.06101V6.71311H16.0093V8.06101C16.0093 8.47728 16.3467 8.81476 16.7631 8.81476C17.1794 8.81476 17.5168 8.47728 17.5168 8.06101V6.71311H19.4629L20.6104 19.4925H6.38782Z" fill="white"/>
</g>
<defs>
<filter id="filter0_d_129_150" x="-1" y="0" width="29" height="29" filterUnits="userSpaceOnUse" color-interpolation-filters="sRGB">
<feFlood flood-opacity="0" result="BackgroundImageFix"/>
<feColorMatrix in="SourceAlpha" type="matrix" values="0 0 0 0 0 0 0 0 0 0 0 0 0 0 0 0 0 0 127 0" result="hardAlpha"/>
<feOffset dy="4"/>
<feGaussianBlur stdDeviation="2"/>
<feColorMatrix type="matrix" values="0 0 0 0 0 0 0 0 0 0 0 0 0 0 0 0 0 0 0.25 0"/>
<feBlend mode="normal" in2="BackgroundImageFix" result="effect1_dropShadow_129_150"/>
<feBlend mode="normal" in="SourceGraphic" in2="effect1_dropShadow_129_150" result="shape"/>
</filter>
</defs>
</svg>
