<svg width="24" height="25" viewBox="0 0 24 25" fill="none" xmlns="http://www.w3.org/2000/svg">
<path d="M23.7728 23.1863L17.5762 16.9687C19.1989 15.171 20.1959 12.7935 20.1959 10.1774C20.1951 4.58088 15.6745 0.0446777 10.0976 0.0446777C4.52065 0.0446777 0 4.58088 0 10.1774C0 15.7738 4.52065 20.31 10.0976 20.31C12.5072 20.31 14.7172 19.4602 16.4532 18.0473L22.6738 24.2894C22.9769 24.5938 23.469 24.5938 23.7721 24.2894C24.0759 23.9849 24.0759 23.4908 23.7728 23.1863ZM10.0976 18.7511C5.37888 18.7511 1.55365 14.9125 1.55365 10.1774C1.55365 5.44222 5.37888 1.60365 10.0976 1.60365C14.8163 1.60365 18.6415 5.44222 18.6415 10.1774C18.6415 14.9125 14.8163 18.7511 10.0976 18.7511Z" fill="#A04955"/>
</svg>
